<?xml version="1.0" standalone="no"?>
<!DOCTYPE svg PUBLIC "-//W3C//DTD SVG 20010904//EN"
 "http://www.w3.org/TR/2001/REC-SVG-20010904/DTD/svg10.dtd">
<svg version="1.0" xmlns="http://www.w3.org/2000/svg"
 width="423.000000pt" height="372.000000pt" viewBox="0 0 423.000000 372.000000"
 preserveAspectRatio="xMidYMid meet">

<g transform="translate(0.000000,372.000000) scale(0.100000,-0.100000)"
fill="#0081CF" stroke="none">
<path d="M1545 3351 c-6 -5 -37 -23 -70 -41 -33 -19 -87 -50 -120 -70 -33 -20
-111 -64 -173 -99 l-113 -63 4 -657 c3 -628 4 -660 24 -741 66 -261 139 -415
424 -883 107 -175 223 -367 258 -428 35 -60 68 -112 73 -115 9 -6 -4 -13 280
145 123 68 248 137 278 154 102 56 245 134 280 154 19 11 76 43 125 71 189
106 222 148 265 327 39 164 42 214 46 780 3 308 2 565 -3 571 -8 10 -109 74
-118 74 -3 0 -45 25 -94 55 -99 61 -129 67 -175 32 -32 -24 -297 -178 -373
-216 -23 -11 -45 -26 -50 -33 -4 -7 -10 -278 -13 -602 -4 -459 -8 -590 -17
-594 -7 -2 -13 1 -13 6 0 10 -24 53 -160 282 -77 130 -136 247 -166 326 -48
128 -55 228 -54 824 1 300 -2 553 -5 561 -3 8 -33 30 -68 49 -34 18 -102 58
-150 87 -89 54 -106 60 -122 44z m-300 -402 c78 -48 117 -78 120 -93 2 -11 6
-277 9 -591 7 -770 -10 -702 317 -1255 141 -238 152 -254 172 -258 10 -2 59
21 110 51 51 30 128 75 172 100 101 58 139 97 168 173 22 58 22 66 25 642 2
500 5 582 17 582 13 0 140 -67 220 -117 l30 -18 3 -575 c3 -641 0 -693 -53
-806 -49 -108 -119 -170 -305 -274 -84 -47 -202 -113 -264 -147 -78 -43 -114
-59 -123 -52 -6 6 -51 76 -98 157 -106 180 -101 172 -152 252 -165 257 -366
629 -416 765 -77 213 -85 273 -89 635 -5 472 1 900 12 900 5 0 61 -32 125 -71z"/>
</g>
</svg>
