<?xml version="1.0" standalone="no"?>
<!DOCTYPE svg PUBLIC "-//W3C//DTD SVG 20010904//EN"
 "http://www.w3.org/TR/2001/REC-SVG-20010904/DTD/svg10.dtd">
<svg version="1.0" xmlns="http://www.w3.org/2000/svg"
 width="586.000000pt" height="319.000000pt" viewBox="0 0 586.000000 319.000000"
 preserveAspectRatio="xMidYMid meet">

<g transform="translate(0.000000,319.000000) scale(0.100000,-0.100000)"
fill="#4B4453" stroke="none">
<path d="M3530 2819 c-84 -14 -139 -53 -175 -124 l-30 -59 0 -835 0 -836 28
-57 c17 -34 50 -77 84 -108 l56 -52 -2 -104 -2 -104 76 -72 c135 -128 107
-118 352 -118 l213 0 0 113 c0 113 0 113 -30 142 -16 16 -30 34 -30 41 0 7 12
36 28 66 l27 53 3 817 2 817 -27 58 c-39 85 -243 287 -333 331 -74 36 -154 46
-240 31z m162 -30 c103 -22 170 -75 209 -167 19 -43 19 -74 17 -851 l-3 -806
-23 -45 c-31 -58 -67 -97 -117 -123 -58 -31 -212 -31 -270 0 -51 27 -97 75
-127 133 l-23 45 -3 789 c-2 488 1 809 7 842 13 66 51 128 93 151 33 17 124
41 165 42 12 1 46 -4 75 -10z m223 -2139 l0 -85 -190 0 -190 0 -3 74 c-2 41
-1 80 2 88 5 11 42 13 193 11 l188 -3 0 -85z"/>
<path d="M3579 2607 c-39 -30 -39 -33 -39 -832 l0 -777 29 -29 c39 -39 80 -39
123 0 l33 29 3 664 c2 365 1 719 -3 787 -6 112 -10 126 -31 148 -26 26 -87 31
-115 10z"/>
<path d="M2463 2795 c-61 -31 -127 -99 -156 -163 -21 -44 -22 -62 -22 -292 0
-231 2 -248 23 -301 34 -86 88 -167 187 -283 50 -58 102 -129 117 -158 29 -56
54 -155 43 -166 -3 -4 -34 24 -68 61 l-62 67 -122 0 -123 0 0 -282 c0 -304 4
-336 51 -404 30 -44 178 -192 242 -243 128 -100 321 -93 430 16 20 20 47 57
59 82 22 44 23 59 26 309 3 242 1 269 -18 340 -29 106 -69 176 -183 322 -115
147 -167 245 -174 331 -3 33 -2 59 3 59 5 0 39 -29 74 -65 l64 -65 119 0 118
0 -3 223 c-3 220 -3 222 -31 279 -19 40 -64 94 -145 176 -147 149 -205 182
-322 182 -62 0 -86 -5 -127 -25z m262 -30 c53 -33 106 -89 128 -135 20 -42 22
-60 22 -250 l0 -205 -90 0 -90 0 -5 193 -5 194 -29 25 c-24 21 -37 24 -69 20
-72 -10 -81 -28 -88 -185 -11 -270 7 -327 165 -525 112 -141 160 -220 189
-312 20 -65 22 -89 22 -335 0 -299 -3 -317 -68 -388 -64 -68 -106 -86 -207
-85 -101 0 -158 21 -218 81 -67 67 -73 99 -70 403 l3 264 85 0 85 0 5 -240 c3
-132 10 -249 14 -260 20 -45 48 -65 92 -65 35 0 47 5 69 32 l26 31 -3 256 -3
256 -32 60 c-17 33 -58 92 -90 131 -32 39 -84 102 -115 140 -115 141 -138 219
-138 482 0 224 10 267 78 343 26 29 69 63 97 76 43 21 62 24 130 20 56 -2 89
-9 110 -22z"/>
<path d="M503 2768 c4 -24 16 -169 27 -323 11 -154 24 -338 30 -410 5 -71 15
-197 20 -280 6 -82 17 -242 25 -355 8 -113 19 -270 25 -350 5 -80 13 -180 16
-222 7 -86 -8 -65 151 -210 l52 -48 185 0 c214 0 192 -15 201 135 8 127 32
471 45 640 5 72 12 171 15 220 3 50 10 142 15 205 5 63 16 216 25 340 8 124
20 287 26 363 l11 137 -32 38 c-18 20 -59 65 -92 100 l-60 62 -123 0 -122 0
-7 -46 c-3 -26 -6 -64 -6 -85 0 -25 -5 -39 -12 -39 -7 0 -46 38 -86 85 l-74
85 -130 0 -131 0 6 -42z m221 -15 c3 -16 8 -73 11 -128 3 -55 10 -156 16 -225
5 -69 14 -192 19 -275 6 -82 17 -242 25 -355 8 -113 19 -284 25 -380 6 -96 13
-185 16 -198 9 -45 21 -11 27 80 13 194 27 398 37 523 5 72 17 234 25 360 28
398 44 606 50 616 4 5 44 9 91 9 l84 0 0 -57 c0 -32 -4 -107 -10 -168 -5 -60
-14 -180 -20 -265 -6 -85 -17 -247 -25 -360 -8 -113 -19 -272 -25 -355 -6 -82
-14 -204 -20 -270 -5 -66 -14 -194 -20 -285 -6 -91 -13 -180 -16 -198 l-5 -32
-164 0 -164 0 -5 53 c-3 28 -8 93 -11 142 -3 50 -12 185 -20 300 -14 197 -22
303 -60 850 -9 121 -22 311 -31 423 -8 112 -12 207 -9 212 4 6 44 10 90 10 83
0 83 0 89 -27z"/>
<path d="M1610 1782 l0 -1029 58 -54 c31 -30 76 -71 100 -92 l43 -38 112 3
112 3 3 1017 2 1018 -37 42 c-20 24 -62 69 -92 101 l-55 57 -123 0 -123 0 0
-1028z m215 976 c3 -13 4 -459 3 -993 l-3 -970 -90 0 -90 0 -3 980 c-1 539 0
986 3 993 3 8 31 12 89 12 80 0 86 -1 91 -22z"/>
<path d="M4350 2801 c0 -4 25 -138 54 -297 30 -159 65 -341 77 -404 11 -63 35
-182 52 -265 l31 -150 4 -467 3 -466 91 -84 c50 -46 96 -87 104 -91 7 -4 62
-6 121 -5 l108 3 5 460 c5 422 7 468 27 560 12 55 35 174 53 265 17 91 35 183
40 205 5 22 23 114 40 205 17 91 38 195 46 232 23 109 22 112 -58 202 -40 45
-80 86 -88 93 -10 8 -56 12 -137 13 -139 0 -123 12 -143 -104 -5 -33 -13 -62
-16 -65 -3 -3 -43 33 -87 82 l-82 87 -122 0 c-68 0 -123 -4 -123 -9z m222 -56
c4 -16 21 -120 39 -230 43 -276 79 -488 83 -492 5 -5 9 17 71 391 30 184 58
342 61 350 5 13 24 16 91 16 l86 0 -7 -50 c-4 -27 -17 -105 -31 -172 -13 -68
-38 -197 -55 -288 -18 -91 -50 -255 -73 -365 l-42 -200 -5 -455 -5 -455 -90 0
-90 0 -5 465 c-3 256 -9 472 -13 480 -6 12 -62 304 -132 680 -8 41 -25 135
-39 209 -14 73 -23 137 -20 142 3 6 42 8 87 7 81 -3 81 -3 89 -33z"/>
</g>
</svg>
